<mxfile host="app.diagrams.net" modified="2021-09-23T03:13:51.868Z" agent="5.0 (Macintosh; Intel Mac OS X 10_15_7) AppleWebKit/537.36 (KHTML, like Gecko) Chrome/93.0.4577.63 Safari/537.36" etag="4__IWfZa1NWpBJAxNSr7" version="15.1.4" type="github">
  <diagram id="t8fjvD5pvAQtDdp1myQy" name="Page-1">
    <mxGraphModel dx="825" dy="505" grid="1" gridSize="10" guides="1" tooltips="1" connect="1" arrows="1" fold="1" page="1" pageScale="1" pageWidth="850" pageHeight="1100" background="#F1FAEE" math="0" shadow="0">
      <root>
        <mxCell id="0" />
        <mxCell id="1" parent="0" />
        <mxCell id="1uAjtqzWve0T70O8QY8r-20" value="" style="edgeStyle=orthogonalEdgeStyle;rounded=0;orthogonalLoop=1;jettySize=auto;html=1;fontSize=12;labelBackgroundColor=#F1FAEE;strokeColor=#457B9D;fontColor=#1D3557;" parent="1" source="1uAjtqzWve0T70O8QY8r-1" target="1uAjtqzWve0T70O8QY8r-19" edge="1">
          <mxGeometry relative="1" as="geometry" />
        </mxCell>
        <mxCell id="1uAjtqzWve0T70O8QY8r-1" value="Redis查询多源api类启用配置" style="rounded=0;whiteSpace=wrap;html=1;fontSize=12;fillColor=#A8DADC;strokeColor=#457B9D;fontColor=#1D3557;" parent="1" vertex="1">
          <mxGeometry x="360" y="140" width="120" height="60" as="geometry" />
        </mxCell>
        <mxCell id="1uAjtqzWve0T70O8QY8r-16" value="" style="edgeStyle=orthogonalEdgeStyle;rounded=0;orthogonalLoop=1;jettySize=auto;html=1;fontSize=12;labelBackgroundColor=#F1FAEE;strokeColor=#457B9D;fontColor=#1D3557;" parent="1" target="1uAjtqzWve0T70O8QY8r-15" edge="1">
          <mxGeometry relative="1" as="geometry">
            <mxPoint x="420" y="1221" as="sourcePoint" />
          </mxGeometry>
        </mxCell>
        <mxCell id="1uAjtqzWve0T70O8QY8r-18" value="" style="edgeStyle=orthogonalEdgeStyle;rounded=0;orthogonalLoop=1;jettySize=auto;html=1;fontSize=12;labelBackgroundColor=#F1FAEE;strokeColor=#457B9D;fontColor=#1D3557;" parent="1" source="1uAjtqzWve0T70O8QY8r-15" target="1uAjtqzWve0T70O8QY8r-17" edge="1">
          <mxGeometry relative="1" as="geometry" />
        </mxCell>
        <mxCell id="1uAjtqzWve0T70O8QY8r-15" value="数据映射" style="whiteSpace=wrap;html=1;rounded=0;fontSize=12;fillColor=#A8DADC;strokeColor=#457B9D;fontColor=#1D3557;" parent="1" vertex="1">
          <mxGeometry x="360" y="1301" width="120" height="60" as="geometry" />
        </mxCell>
        <mxCell id="1uAjtqzWve0T70O8QY8r-17" value="返回数据" style="whiteSpace=wrap;html=1;rounded=0;fontSize=12;fillColor=#A8DADC;strokeColor=#457B9D;fontColor=#1D3557;" parent="1" vertex="1">
          <mxGeometry x="360" y="1441" width="120" height="60" as="geometry" />
        </mxCell>
        <mxCell id="1uAjtqzWve0T70O8QY8r-22" value="" style="edgeStyle=orthogonalEdgeStyle;rounded=0;orthogonalLoop=1;jettySize=auto;html=1;fontSize=12;labelBackgroundColor=#F1FAEE;strokeColor=#457B9D;fontColor=#1D3557;" parent="1" source="1uAjtqzWve0T70O8QY8r-19" target="1uAjtqzWve0T70O8QY8r-21" edge="1">
          <mxGeometry relative="1" as="geometry" />
        </mxCell>
        <mxCell id="1uAjtqzWve0T70O8QY8r-19" value="&lt;span style=&quot;font-size: 12px;&quot;&gt;通过多源映射表、调用相应的api&lt;/span&gt;" style="whiteSpace=wrap;html=1;rounded=0;fontSize=12;fillColor=#A8DADC;strokeColor=#457B9D;fontColor=#1D3557;" parent="1" vertex="1">
          <mxGeometry x="360" y="280" width="120" height="60" as="geometry" />
        </mxCell>
        <mxCell id="1uAjtqzWve0T70O8QY8r-24" value="" style="edgeStyle=orthogonalEdgeStyle;rounded=0;orthogonalLoop=1;jettySize=auto;html=1;fontSize=12;labelBackgroundColor=#F1FAEE;strokeColor=#457B9D;fontColor=#1D3557;" parent="1" source="1uAjtqzWve0T70O8QY8r-21" target="1uAjtqzWve0T70O8QY8r-23" edge="1">
          <mxGeometry relative="1" as="geometry" />
        </mxCell>
        <mxCell id="1uAjtqzWve0T70O8QY8r-21" value="&lt;span style=&quot;color: rgb(0 , 0 , 0) ; font-family: &amp;#34;helvetica&amp;#34;&quot;&gt;解析获取api需要的基本参数（host、port、param、apikey等）&lt;/span&gt;" style="whiteSpace=wrap;html=1;rounded=0;fontSize=12;fillColor=#A8DADC;strokeColor=#457B9D;fontColor=#1D3557;" parent="1" vertex="1">
          <mxGeometry x="360" y="420" width="120" height="60" as="geometry" />
        </mxCell>
        <mxCell id="1uAjtqzWve0T70O8QY8r-26" value="" style="edgeStyle=orthogonalEdgeStyle;rounded=0;orthogonalLoop=1;jettySize=auto;html=1;fontSize=12;labelBackgroundColor=#F1FAEE;strokeColor=#457B9D;fontColor=#1D3557;" parent="1" source="1uAjtqzWve0T70O8QY8r-23" target="1uAjtqzWve0T70O8QY8r-25" edge="1">
          <mxGeometry relative="1" as="geometry" />
        </mxCell>
        <mxCell id="1uAjtqzWve0T70O8QY8r-43" value="" style="edgeStyle=orthogonalEdgeStyle;rounded=0;orthogonalLoop=1;jettySize=auto;html=1;fontSize=12;exitX=1;exitY=0.5;exitDx=0;exitDy=0;labelBackgroundColor=#F1FAEE;strokeColor=#457B9D;fontColor=#1D3557;" parent="1" source="1uAjtqzWve0T70O8QY8r-25" edge="1">
          <mxGeometry relative="1" as="geometry">
            <mxPoint x="490" y="730" as="sourcePoint" />
            <mxPoint x="480" y="1330" as="targetPoint" />
            <Array as="points">
              <mxPoint x="560" y="730" />
              <mxPoint x="560" y="1330" />
            </Array>
          </mxGeometry>
        </mxCell>
        <mxCell id="1uAjtqzWve0T70O8QY8r-44" value="是" style="edgeLabel;html=1;align=center;verticalAlign=middle;resizable=0;points=[];fontSize=12;labelBackgroundColor=#F1FAEE;fontColor=#1D3557;" parent="1uAjtqzWve0T70O8QY8r-43" vertex="1" connectable="0">
          <mxGeometry x="-0.902" y="4" relative="1" as="geometry">
            <mxPoint as="offset" />
          </mxGeometry>
        </mxCell>
        <mxCell id="1uAjtqzWve0T70O8QY8r-23" value="&lt;span style=&quot;font-size: 12px;&quot;&gt;查询redis缓存数据&lt;/span&gt;" style="whiteSpace=wrap;html=1;rounded=0;fontSize=12;fillColor=#A8DADC;strokeColor=#457B9D;fontColor=#1D3557;" parent="1" vertex="1">
          <mxGeometry x="360" y="560" width="120" height="60" as="geometry" />
        </mxCell>
        <mxCell id="1uAjtqzWve0T70O8QY8r-30" value="" style="edgeStyle=orthogonalEdgeStyle;rounded=0;orthogonalLoop=1;jettySize=auto;html=1;fontSize=12;labelBackgroundColor=#F1FAEE;strokeColor=#457B9D;fontColor=#1D3557;" parent="1" source="1uAjtqzWve0T70O8QY8r-25" target="1uAjtqzWve0T70O8QY8r-29" edge="1">
          <mxGeometry relative="1" as="geometry" />
        </mxCell>
        <mxCell id="1uAjtqzWve0T70O8QY8r-41" value="否" style="edgeLabel;html=1;align=center;verticalAlign=middle;resizable=0;points=[];fontSize=12;labelBackgroundColor=#F1FAEE;fontColor=#1D3557;" parent="1uAjtqzWve0T70O8QY8r-30" vertex="1" connectable="0">
          <mxGeometry x="-0.0444" relative="1" as="geometry">
            <mxPoint as="offset" />
          </mxGeometry>
        </mxCell>
        <mxCell id="1uAjtqzWve0T70O8QY8r-25" value="&lt;span style=&quot;font-size: 12px;&quot;&gt;缓存是否命中&lt;/span&gt;" style="rhombus;whiteSpace=wrap;html=1;rounded=0;fontSize=12;fillColor=#A8DADC;strokeColor=#457B9D;fontColor=#1D3557;" parent="1" vertex="1">
          <mxGeometry x="380" y="690" width="80" height="80" as="geometry" />
        </mxCell>
        <mxCell id="1uAjtqzWve0T70O8QY8r-36" value="" style="edgeStyle=orthogonalEdgeStyle;rounded=0;orthogonalLoop=1;jettySize=auto;html=1;fontSize=12;labelBackgroundColor=#F1FAEE;strokeColor=#457B9D;fontColor=#1D3557;" parent="1" source="1uAjtqzWve0T70O8QY8r-29" target="1uAjtqzWve0T70O8QY8r-35" edge="1">
          <mxGeometry relative="1" as="geometry" />
        </mxCell>
        <mxCell id="1uAjtqzWve0T70O8QY8r-29" value="请求api接口" style="whiteSpace=wrap;html=1;rounded=0;fontSize=12;fillColor=#A8DADC;strokeColor=#457B9D;fontColor=#1D3557;" parent="1" vertex="1">
          <mxGeometry x="360" y="860" width="120" height="60" as="geometry" />
        </mxCell>
        <mxCell id="1uAjtqzWve0T70O8QY8r-38" value="" style="edgeStyle=orthogonalEdgeStyle;rounded=0;orthogonalLoop=1;jettySize=auto;html=1;fontSize=12;labelBackgroundColor=#F1FAEE;strokeColor=#457B9D;fontColor=#1D3557;" parent="1" source="1uAjtqzWve0T70O8QY8r-35" target="1uAjtqzWve0T70O8QY8r-37" edge="1">
          <mxGeometry relative="1" as="geometry" />
        </mxCell>
        <mxCell id="1uAjtqzWve0T70O8QY8r-46" value="是" style="edgeLabel;html=1;align=center;verticalAlign=middle;resizable=0;points=[];fontSize=12;labelBackgroundColor=#F1FAEE;fontColor=#1D3557;" parent="1uAjtqzWve0T70O8QY8r-38" vertex="1" connectable="0">
          <mxGeometry x="-0.0222" y="-1" relative="1" as="geometry">
            <mxPoint as="offset" />
          </mxGeometry>
        </mxCell>
        <mxCell id="1uAjtqzWve0T70O8QY8r-48" value="" style="edgeStyle=orthogonalEdgeStyle;rounded=0;orthogonalLoop=1;jettySize=auto;html=1;fontSize=12;entryX=0;entryY=0.5;entryDx=0;entryDy=0;labelBackgroundColor=#F1FAEE;strokeColor=#457B9D;fontColor=#1D3557;" parent="1" source="1uAjtqzWve0T70O8QY8r-35" target="1uAjtqzWve0T70O8QY8r-17" edge="1">
          <mxGeometry relative="1" as="geometry">
            <mxPoint x="290" y="1480" as="targetPoint" />
            <Array as="points">
              <mxPoint x="260" y="1030" />
              <mxPoint x="260" y="1471" />
            </Array>
          </mxGeometry>
        </mxCell>
        <mxCell id="1uAjtqzWve0T70O8QY8r-49" value="否" style="edgeLabel;html=1;align=center;verticalAlign=middle;resizable=0;points=[];fontSize=12;labelBackgroundColor=#F1FAEE;fontColor=#1D3557;" parent="1uAjtqzWve0T70O8QY8r-48" vertex="1" connectable="0">
          <mxGeometry x="-0.8275" y="-3" relative="1" as="geometry">
            <mxPoint as="offset" />
          </mxGeometry>
        </mxCell>
        <mxCell id="1uAjtqzWve0T70O8QY8r-35" value="是否成功响应" style="rhombus;whiteSpace=wrap;html=1;rounded=0;fontSize=12;fillColor=#A8DADC;strokeColor=#457B9D;fontColor=#1D3557;" parent="1" vertex="1">
          <mxGeometry x="380" y="990" width="80" height="80" as="geometry" />
        </mxCell>
        <mxCell id="1uAjtqzWve0T70O8QY8r-37" value="写入redis缓存" style="whiteSpace=wrap;html=1;rounded=0;fontSize=12;fillColor=#A8DADC;strokeColor=#457B9D;fontColor=#1D3557;" parent="1" vertex="1">
          <mxGeometry x="360" y="1160" width="120" height="60" as="geometry" />
        </mxCell>
      </root>
    </mxGraphModel>
  </diagram>
</mxfile>
